<?xml version="1.0" encoding="UTF-8" standalone="no"?>
<!DOCTYPE svg PUBLIC "-//W3C//DTD SVG 20010904//EN"
              "http://www.w3.org/TR/2001/REC-SVG-20010904/DTD/svg10.dtd">

<svg xmlns="http://www.w3.org/2000/svg"
     width="8.36111in" height="14.8194in"
     viewBox="0 0 602 1067">
  <path id="Auswahl"
        fill="none" stroke="black" stroke-width="1"
        d="M 340.00,227.58
           C 357.43,232.55 372.67,240.30 387.00,251.42
             449.68,300.08 458.15,395.68 403.91,454.00
             392.09,466.71 377.69,477.68 362.00,485.22
             342.30,494.68 319.80,499.25 298.00,499.00
             286.89,498.87 272.70,496.19 262.00,493.14
             179.96,469.79 139.40,374.74 177.27,299.00
             193.65,266.23 221.44,241.75 256.00,229.69
             269.79,224.89 278.09,224.41 292.00,222.42
             306.01,220.72 326.41,223.70 340.00,227.58 Z
           M 320.00,331.00
           C 320.00,331.00 320.00,336.00 320.00,336.00
             320.00,336.00 325.00,336.00 325.00,336.00
             325.00,336.00 325.00,331.00 325.00,331.00
             325.00,331.00 320.00,331.00 320.00,331.00 Z
           M 348.00,331.00
           C 348.00,331.00 348.00,354.00 348.00,354.00
             348.00,354.00 353.00,354.00 353.00,354.00
             353.00,350.83 352.25,343.60 356.09,342.54
             356.95,342.05 357.70,342.19 358.41,342.54
             360.56,344.42 360.00,351.36 360.00,354.00
             360.00,354.00 365.00,354.00 365.00,354.00
             365.00,348.11 366.71,336.47 357.00,338.50
             355.60,338.79 354.31,339.45 353.00,340.00
             353.00,340.00 353.00,331.00 353.00,331.00
             353.00,331.00 348.00,331.00 348.00,331.00 Z
           M 199.00,332.00
           C 199.00,332.00 199.00,354.00 199.00,354.00
             199.00,354.00 204.00,354.00 204.00,354.00
             204.00,354.00 204.00,346.00 204.00,346.00
             209.92,351.89 210.54,353.89 219.00,354.00
             219.00,354.00 208.00,342.00 208.00,342.00
             208.00,342.00 218.00,332.00 218.00,332.00
             210.40,332.26 209.22,334.80 204.00,340.00
             204.00,340.00 204.00,332.00 204.00,332.00
             204.00,332.00 199.00,332.00 199.00,332.00 Z
           M 233.77,339.85
           C 229.29,336.59 219.21,337.81 219.21,346.00
             219.21,355.39 232.63,355.14 235.01,352.26
             235.87,351.22 235.79,350.20 236.00,349.00
             230.16,350.89 229.23,351.65 224.00,348.00
             224.00,348.00 237.00,348.00 237.00,348.00
             236.81,344.71 236.72,341.99 233.77,339.85 Z
           M 241.00,338.00
           C 241.00,338.00 241.00,354.00 241.00,354.00
             241.00,354.00 246.00,354.00 246.00,354.00
             246.00,350.83 245.25,343.60 249.09,342.54
             249.95,342.05 250.70,342.19 251.41,342.54
             253.56,344.42 253.00,351.36 253.00,354.00
             253.00,354.00 258.00,354.00 258.00,354.00
             258.00,348.11 259.71,336.47 250.00,338.50
             248.60,338.79 247.31,339.45 246.00,340.00
             246.00,340.00 241.00,338.00 241.00,338.00 Z
           M 262.00,338.00
           C 262.00,338.00 262.00,354.00 262.00,354.00
             262.00,354.00 267.00,354.00 267.00,354.00
             267.00,350.83 266.25,343.60 270.09,342.54
             270.95,342.05 271.70,342.19 272.41,342.54
             274.56,344.42 274.00,351.36 274.00,354.00
             274.00,354.00 279.00,354.00 279.00,354.00
             279.00,348.11 280.71,336.47 271.00,338.50
             269.60,338.79 268.31,339.45 267.00,340.00
             267.00,340.00 262.00,338.00 262.00,338.00 Z
           M 281.00,338.00
           C 281.00,338.00 281.00,341.00 281.00,341.00
             281.00,341.00 289.00,341.00 289.00,341.00
             285.21,345.37 281.95,348.13 281.00,354.00
             281.00,354.00 296.00,354.00 296.00,354.00
             296.00,354.00 296.00,351.00 296.00,351.00
             296.00,351.00 288.00,351.00 288.00,351.00
             291.70,346.49 295.05,343.89 296.00,338.00
             296.00,338.00 281.00,338.00 281.00,338.00 Z
           M 312.77,339.85
           C 308.29,336.59 298.21,337.81 298.21,346.00
             298.21,355.39 311.63,355.14 314.01,352.26
             314.87,351.22 314.79,350.20 315.00,349.00
             309.16,350.89 308.23,351.65 303.00,348.00
             303.00,348.00 316.00,348.00 316.00,348.00
             315.81,344.71 315.72,341.99 312.77,339.85 Z
           M 320.00,338.00
           C 320.00,338.00 320.00,354.00 320.00,354.00
             320.00,354.00 325.00,354.00 325.00,354.00
             325.00,354.00 325.00,338.00 325.00,338.00
             325.00,338.00 320.00,338.00 320.00,338.00 Z
           M 328.21,346.00
           C 328.21,353.83 340.40,358.07 342.00,349.17
             339.77,349.87 337.55,351.06 335.32,349.17
             332.40,347.12 333.49,342.59 337.06,341.87
             338.81,341.51 340.43,342.39 342.00,343.00
             340.40,333.91 328.21,338.44 328.21,346.00 Z
           M 381.77,339.85
           C 377.29,336.59 367.21,337.81 367.21,346.00
             367.21,355.39 380.63,355.14 383.01,352.26
             383.87,351.22 383.79,350.20 384.00,349.00
             378.16,350.89 377.23,351.65 372.00,348.00
             372.00,348.00 385.00,348.00 385.00,348.00
             384.81,344.71 384.72,341.99 381.77,339.85 Z
           M 389.00,338.00
           C 389.00,338.00 389.00,354.00 389.00,354.00
             389.00,354.00 394.00,354.00 394.00,354.00
             394.00,350.83 393.25,343.60 397.09,342.54
             397.95,342.05 398.70,342.19 399.41,342.54
             401.56,344.42 401.00,351.36 401.00,354.00
             401.00,354.00 406.00,354.00 406.00,354.00
             406.00,348.11 407.71,336.47 398.00,338.50
             396.60,338.79 395.31,339.45 394.00,340.00
             394.00,340.00 389.00,338.00 389.00,338.00 Z
           M 232.00,345.00
           C 232.00,345.00 224.00,345.00 224.00,345.00
             226.62,340.37 229.38,340.37 232.00,345.00 Z
           M 311.00,345.00
           C 311.00,345.00 303.00,345.00 303.00,345.00
             305.62,340.37 308.38,340.37 311.00,345.00 Z
           M 380.00,345.00
           C 380.00,345.00 372.00,345.00 372.00,345.00
             374.62,340.37 377.38,340.37 380.00,345.00 Z
           M 289.00,366.00
           C 289.00,366.00 289.00,370.00 289.00,370.00
             289.00,370.00 292.00,370.00 292.00,370.00
             292.00,370.00 292.00,366.00 292.00,366.00
             292.00,366.00 289.00,366.00 289.00,366.00 Z
           M 295.00,366.00
           C 295.00,366.00 295.00,370.00 295.00,370.00
             295.00,370.00 298.00,370.00 298.00,370.00
             298.00,370.00 298.00,366.00 298.00,366.00
             298.00,366.00 295.00,366.00 295.00,366.00 Z
           M 306.00,373.00
           C 306.00,373.00 303.00,373.00 303.00,373.00
             303.00,373.00 303.00,376.00 303.00,376.00
             307.29,378.87 306.00,384.29 306.00,389.00
             306.00,389.00 311.00,389.00 311.00,389.00
             311.00,389.00 311.00,376.00 311.00,376.00
             311.00,376.00 315.00,376.00 315.00,376.00
             315.00,376.00 315.00,373.00 315.00,373.00
             315.00,373.00 311.00,373.00 311.00,373.00
             311.00,373.00 316.00,369.00 316.00,369.00
             316.00,369.00 316.00,366.00 316.00,366.00
             309.57,366.06 306.85,365.82 306.00,373.00 Z
           M 249.00,373.00
           C 249.00,373.00 249.00,395.00 249.00,395.00
             249.00,395.00 254.00,395.00 254.00,395.00
             254.00,395.00 254.00,387.00 254.00,387.00
             256.36,388.09 258.27,389.12 260.98,388.53
             269.72,386.61 268.14,372.82 259.00,373.33
             257.04,373.44 255.71,374.21 254.00,375.00
             254.00,375.00 249.00,373.00 249.00,373.00 Z
           M 270.00,373.00
           C 270.00,373.00 270.00,389.00 270.00,389.00
             270.00,389.00 275.00,389.00 275.00,389.00
             275.01,383.10 274.14,377.35 282.00,378.00
             282.00,378.00 282.00,373.00 282.00,373.00
             282.00,373.00 275.00,375.00 275.00,375.00
             275.00,375.00 270.00,373.00 270.00,373.00 Z
           M 285.00,373.00
           C 285.00,378.89 283.29,390.53 293.00,388.50
             294.40,388.21 295.69,387.55 297.00,387.00
             297.00,387.00 302.00,389.00 302.00,389.00
             302.00,389.00 302.00,373.00 302.00,373.00
             302.00,373.00 297.00,373.00 297.00,373.00
             297.00,376.17 297.75,383.40 293.91,384.46
             293.05,384.95 292.30,384.81 291.59,384.46
             289.44,382.58 290.00,375.64 290.00,373.00
             290.00,373.00 285.00,373.00 285.00,373.00 Z
           M 331.77,374.85
           C 327.29,371.59 317.21,372.81 317.21,381.00
             317.21,390.39 330.63,390.14 333.01,387.26
             333.87,386.22 333.79,385.20 334.00,384.00
             328.16,385.89 327.23,386.65 322.00,383.00
             322.00,383.00 335.00,383.00 335.00,383.00
             334.81,379.71 334.72,376.99 331.77,374.85 Z
           M 339.00,373.00
           C 339.00,373.00 339.00,389.00 339.00,389.00
             339.00,389.00 344.00,389.00 344.00,389.00
             344.00,385.83 343.25,378.60 347.09,377.54
             347.95,377.05 348.70,377.19 349.41,377.54
             351.56,379.42 351.00,386.36 351.00,389.00
             351.00,389.00 356.00,389.00 356.00,389.00
             356.00,383.11 357.71,371.47 348.00,373.50
             346.60,373.79 345.31,374.45 344.00,375.00
             344.00,375.00 339.00,373.00 339.00,373.00 Z
           M 259.69,384.92
           C 256.24,386.88 251.56,382.03 256.31,377.08
             263.07,375.58 262.66,383.24 259.69,384.92 Z
           M 328.46,377.61
           C 329.55,378.54 329.70,379.47 330.00,380.00
             330.00,380.00 322.00,380.00 322.00,380.00
             323.42,377.50 325.47,375.05 328.46,377.61 Z" />
</svg>
